<?xml version="1.0" encoding="UTF-8" standalone="no"?><!DOCTYPE svg PUBLIC "-//W3C//DTD SVG 1.1//EN" "http://www.w3.org/Graphics/SVG/1.1/DTD/svg11.dtd"><svg width="100%" height="100%" viewBox="0 0 156 156" version="1.1" xmlns="http://www.w3.org/2000/svg" xmlns:xlink="http://www.w3.org/1999/xlink" xml:space="preserve" style="fill-rule:evenodd;clip-rule:evenodd;stroke-linejoin:round;stroke-miterlimit:1.41421;"><g id="Layer-1"><g><path d="M77.872,153.073c-41.466,0 -75.202,-33.734 -75.202,-75.204c0,-41.464 33.736,-75.198 75.202,-75.198c41.466,0 75.201,33.734 75.201,75.198c0,41.47 -33.735,75.204 -75.201,75.204" style="fill:#be9b60;fill-rule:nonzero;"/><path d="M77.872,0c-20.799,0 -40.355,8.1 -55.063,22.808c-14.708,14.708 -22.809,34.261 -22.809,55.061c0,20.801 8.101,40.356 22.809,55.065c14.708,14.711 34.263,22.811 55.063,22.811c20.802,0 40.358,-8.1 55.065,-22.811c14.708,-14.709 22.807,-34.264 22.807,-55.065c0,-20.8 -8.099,-40.354 -22.807,-55.061c-14.708,-14.708 -34.263,-22.808 -55.065,-22.808m0,5.342c40.061,0 72.53,32.472 72.53,72.527c0,40.059 -32.469,72.534 -72.53,72.534c-40.055,0 -72.53,-32.475 -72.53,-72.534c0,-40.055 32.475,-72.527 72.53,-72.527" style="fill:#00703c;fill-rule:nonzero;"/><path d="M64.141,27.969l0,44.324l-0.043,4.282l0,43.244c0,5.185 -6.45,9.982 -8.39,11.066l0.215,1.943c0,0 16.217,0.219 16.217,-15.998l0,-40.861l0,-4.11l0,-45.407c0,-3.242 1.081,-5.837 2.808,-6.923l0,-4.103c0,0 -10.807,3.895 -10.807,12.543" style="fill:#fff;fill-rule:nonzero;"/><path d="M59.982,18.285c0,0 -8.865,3.241 -8.865,13.403l0,44.538l-0.171,5.616l0,39.787c0,2.811 -3.241,6.49 -4.322,7.354l0.859,1.295c0,0 10.384,-6.049 10.384,-12.535l0,-39.353l0.164,-4.972l0,-44.541c0,-4.108 -0.216,-6.057 1.951,-8.214l0,-2.378" style="fill:#fff;fill-rule:nonzero;"/><path d="M97.867,26.716c-12.541,0 -16.651,18.813 -8.649,26.592c8,7.789 27.245,4.545 27.245,-17.728c0,-22.27 -17.516,-23.135 -21.623,-23.135c-4.114,0 -18.594,2.376 -18.594,23.135l0,36.541c-8.749,0 -22.195,3.547 -26.391,6.697c0,0 -12.531,6.49 -16.853,19.033c-4.322,12.538 -1.946,31.997 15.782,41.512c17.729,9.518 33.947,-9.515 33.947,-22.058l0,-41.079l9.944,0c2.816,0 9.945,0.651 9.945,7.786l0,5.408c0,1.512 1.084,1.512 1.947,1.512c0.868,0 1.735,-1.299 1.735,-2.812l0,-26.378c0,-1.51 -0.217,-2.806 -1.518,-2.806c-1.297,0 -1.727,1.296 -1.727,2.589l0,5.622c0,1.95 -1.733,5.187 -5.41,5.187l-15.132,0l0,-40.43c0,-5.623 4.106,-15.135 13.617,-15.135c9.517,0 18.163,7.783 15.791,23.565c0,0 -1.513,-13.618 -14.056,-13.618m0,26.598c-8.649,0 -9.083,-9.946 -9.083,-11.463c0,-1.517 1.085,-11.454 9.083,-11.454c3.672,0 9.514,3.454 9.514,9.724c0,6.268 -0.862,13.193 -9.514,13.193m-21.581,57.942c0,9.082 -4.153,25.943 -18.205,25.943c-14.048,0 -22.917,-16.004 -22.917,-26.164c0,-12.967 5.999,-23.908 16.006,-29.071c8.125,-4.197 14.32,-5.766 25.116,-5.766c0.051,9.438 0,25.531 0,35.058" style="fill:#020001;fill-rule:nonzero;"/></g></g></svg>